<?xml version="1.0" standalone="no"?>
<!DOCTYPE svg PUBLIC "-//W3C//DTD SVG 20010904//EN"
 "http://www.w3.org/TR/2001/REC-SVG-20010904/DTD/svg10.dtd">
<svg version="1.0" xmlns="http://www.w3.org/2000/svg"
 width="512.000000pt" height="512.000000pt" viewBox="0 0 512.000000 512.000000"
 preserveAspectRatio="xMidYMid meet">

<g transform="translate(0.000000,512.000000) scale(0.100000,-0.100000)"
fill="#000000" stroke="none">
<path d="M1134 3936 c-41 -18 -64 -52 -64 -95 0 -26 18 -61 69 -140 65 -100
101 -163 101 -176 0 -3 -165 -5 -366 -5 -323 0 -369 -2 -394 -17 -58 -34 -68
-116 -21 -164 l29 -29 426 0 c395 0 426 -1 434 -17 32 -60 92 -276 118 -418
22 -124 29 -386 15 -515 -19 -167 -90 -451 -133 -533 -8 -16 -39 -17 -434 -17
l-426 0 -29 -29 c-47 -48 -37 -130 21 -164 25 -15 71 -17 394 -17 201 0 366
-2 366 -5 0 -13 -36 -76 -101 -176 -52 -80 -69 -114 -69 -141 0 -46 31 -84 78
-98 26 -8 266 -10 807 -7 852 4 837 3 1042 72 375 125 674 398 832 760 45 102
94 280 106 383 l7 62 324 0 c348 0 374 3 408 51 21 30 21 88 0 118 -34 48 -60
51 -408 51 l-324 0 -6 58 c-11 94 -55 258 -97 361 -73 178 -174 324 -322 468
-193 186 -420 306 -697 366 -91 19 -131 20 -875 24 -650 2 -785 1 -811 -11z
m1627 -221 c486 -85 863 -464 955 -960 24 -134 15 -356 -20 -490 -87 -325
-314 -605 -613 -755 -101 -50 -208 -86 -317 -105 -74 -12 -199 -15 -737 -15
-357 0 -649 2 -649 4 0 2 17 34 38 72 207 380 313 839 282 1227 -28 354 -118
660 -282 961 -21 38 -38 70 -38 72 0 2 292 4 649 4 526 0 664 -3 732 -15z"/>
</g>
</svg>
